<svg width="34" height="35" viewBox="0 0 34 35" fill="none" xmlns="http://www.w3.org/2000/svg">
<path d="M15.5858 14.6335L15.5858 12.0172C15.5858 11.4657 16.0242 11.0273 16.5757 11.0131C16.7313 11.0131 16.8798 11.0061 17.0353 11.0061C18.4991 11.0131 19.9274 11.1263 21.3204 11.3455C22.7063 11.5717 23.9791 11.9112 25.1176 12.3708C26.256 12.8445 27.1965 13.4456 27.9319 14.181C28.4127 14.6618 28.7875 15.2063 29.042 15.8002C29.3036 16.4013 29.4309 17.066 29.4097 17.7943C29.4026 18.6923 29.1269 19.4065 28.6036 19.9297C28.4056 20.1277 28.1652 20.2833 27.9036 20.3752C27.6349 20.4742 27.345 20.5096 27.0338 20.453L23.0811 19.7813C22.777 19.7318 22.5225 19.661 22.3033 19.5691C22.0912 19.4843 21.9073 19.3711 21.773 19.2368C21.6032 19.0671 21.483 18.8479 21.4194 18.5862C21.3487 18.3317 21.3133 18.0276 21.3133 17.6882L21.2921 16.5922C21.2921 16.4366 21.2356 16.3094 21.1224 16.1962C21.0658 16.1397 21.0093 16.0972 20.9386 16.0548C20.8608 16.0194 20.7971 15.9982 20.7406 15.97C20.38 15.8639 19.8567 15.779 19.1779 15.7225C18.492 15.673 17.7778 15.6376 17.0353 15.6305C16.8939 15.6305 16.7454 15.6376 16.604 15.6376C16.0454 15.6447 15.5858 15.1992 15.5858 14.6335Z" fill="#E0E0E0"/>
<path d="M5.47415 19.9651C5.27616 19.7671 5.10645 19.5267 4.97917 19.258C4.94382 19.1802 4.90846 19.1025 4.88018 19.0176C4.74583 18.6428 4.66097 18.2469 4.63976 17.8155C4.60441 17.0872 4.71047 16.4296 4.96503 15.8215C4.9721 15.8144 4.9721 15.8003 4.97917 15.7932C5.22666 15.2063 5.58729 14.6618 6.07519 14.1739C6.79644 13.4527 7.73689 12.8516 8.89655 12.3849C10.0562 11.9183 11.3361 11.5718 12.7291 11.3526C13.2099 11.2819 13.6907 11.2112 14.1716 11.1687V15.7932C13.8251 15.8427 13.5352 15.9063 13.3089 15.977C13.2594 15.9983 13.1958 16.0195 13.125 16.0478C13.0473 16.0831 12.9836 16.1326 12.92 16.1963C12.7998 16.3165 12.7503 16.4508 12.7503 16.6064L12.7432 17.6741C12.7432 18.0277 12.7079 18.3317 12.6301 18.5792C12.5664 18.8408 12.4533 19.053 12.2765 19.2297C12.1422 19.3641 11.9725 19.4772 11.7533 19.5692C11.5341 19.6611 11.2795 19.7318 10.9825 19.7884L6.98029 20.4672C6.66916 20.5237 6.39339 20.5025 6.13883 20.4035C5.89134 20.2975 5.67214 20.1631 5.47415 19.9651Z" fill="#E0E0E0"/>
</svg>
