<svg width="43" height="42" viewBox="0 0 43 42" fill="none" xmlns="http://www.w3.org/2000/svg">
<rect x="0.401505" width="42" height="42" rx="21" fill="#BA4141" fill-opacity="0.09"/>
<path d="M30.5515 15.17C30.1415 14.95 29.2815 14.72 28.1115 15.54L26.6415 16.58C26.5315 13.47 25.1815 12.25 21.9015 12.25H15.9015C12.4815 12.25 11.1515 13.58 11.1515 17V25C11.1515 27.3 12.4015 29.75 15.9015 29.75H21.9015C25.1815 29.75 26.5315 28.53 26.6415 25.42L28.1115 26.46C28.7315 26.9 29.2715 27.04 29.7015 27.04C30.0715 27.04 30.3615 26.93 30.5515 26.83C30.9615 26.62 31.6515 26.05 31.6515 24.62V17.38C31.6515 15.95 30.9615 15.38 30.5515 15.17ZM20.4015 20.38C19.3715 20.38 18.5215 19.54 18.5215 18.5C18.5215 17.46 19.3715 16.62 20.4015 16.62C21.4315 16.62 22.2815 17.46 22.2815 18.5C22.2815 19.54 21.4315 20.38 20.4015 20.38Z" fill="#BA4141"/>
</svg>
