<svg width="25" height="25" viewBox="0 0 25 25" fill="none" xmlns="http://www.w3.org/2000/svg">
<path d="M22.24 11.2114C22.19 10.7014 21.76 10.3214 21.25 10.3214H13.7C13.15 10.3214 12.7 10.7713 12.7 11.3214V13.0314C12.7 13.5814 13.15 14.0314 13.7 14.0314H18.21C18.1 14.9514 17.5 16.3414 16.17 17.2714C15.32 17.8614 14.19 18.2714 12.7 18.2714C12.63 18.2714 12.57 18.2714 12.5 18.2614C9.94995 18.1814 7.78996 16.4714 7.00996 14.1214C6.79996 13.4914 6.67995 12.8314 6.67995 12.1414C6.67995 11.4514 6.79995 10.7813 6.99995 10.1613C7.05995 9.98135 7.12995 9.80137 7.20995 9.62137C8.12995 7.55137 10.14 6.09136 12.5 6.02136C12.56 6.01136 12.63 6.01135 12.7 6.01135C14.13 6.01135 15.2 6.48134 15.95 7.00134C16.34 7.27134 16.86 7.21135 17.2 6.88135L18.59 5.52136C19.03 5.09136 18.99 4.36134 18.49 4.00134C16.9 2.83134 14.96 2.14136 12.7 2.14136C12.63 2.14136 12.57 2.14137 12.5 2.15137C8.66995 2.22137 5.37995 4.44137 3.76995 7.65137C3.08995 9.01137 2.69995 10.5314 2.69995 12.1414C2.69995 13.7514 3.08995 15.2713 3.76995 16.6313H3.77995C5.38995 19.8413 8.67995 22.0613 12.5 22.1313C12.57 22.1413 12.63 22.1414 12.7 22.1414C15.4 22.1414 17.67 21.2513 19.32 19.7213C21.21 17.9713 22.3 15.4114 22.3 12.3614C22.3 11.9314 22.28 11.5614 22.24 11.2114Z" fill="black"/>
</svg>
