<svg width="43" height="42" viewBox="0 0 43 42" fill="none" xmlns="http://www.w3.org/2000/svg">
<rect x="0.866211" width="42" height="42" rx="21" fill="#EACC2D" fill-opacity="0.09"/>
<path d="M21.8662 13.65C17.0862 13.65 13.1962 17.54 13.1962 22.32C13.1962 27.1 17.0862 31 21.8662 31C26.6462 31 30.5362 27.11 30.5362 22.33C30.5362 17.55 26.6462 13.65 21.8662 13.65ZM22.6162 22C22.6162 22.41 22.2762 22.75 21.8662 22.75C21.4562 22.75 21.1162 22.41 21.1162 22V17C21.1162 16.59 21.4562 16.25 21.8662 16.25C22.2762 16.25 22.6162 16.59 22.6162 17V22Z" fill="#EACC2D"/>
<path d="M24.7562 12.45H18.9762C18.5762 12.45 18.2562 12.13 18.2562 11.73C18.2562 11.33 18.5762 11 18.9762 11H24.7562C25.1562 11 25.4762 11.32 25.4762 11.72C25.4762 12.12 25.1562 12.45 24.7562 12.45Z" fill="#EACC2D"/>
</svg>
