<svg width="25" height="25" viewBox="0 0 25 25" fill="none" xmlns="http://www.w3.org/2000/svg">
<path d="M22.48 11.5513C22.14 5.75131 16.87 1.28132 10.8 2.28132C6.62004 2.97132 3.27005 6.3613 2.62005 10.5413C2.24005 12.9613 2.74007 15.2513 3.83007 17.1413L2.94006 20.4513C2.74006 21.2013 3.43004 21.8813 4.17004 21.6713L7.43005 20.7713C8.91005 21.6413 10.64 22.1413 12.49 22.1413C18.13 22.1413 22.81 17.1713 22.48 11.5513ZM17.3801 15.8613C17.2901 16.0413 17.18 16.2113 17.04 16.3713C16.79 16.6413 16.52 16.8413 16.22 16.9613C15.92 17.0913 15.59 17.1513 15.24 17.1513C14.73 17.1513 14.18 17.0313 13.61 16.7813C13.03 16.5313 12.4601 16.2013 11.8901 15.7913C11.3101 15.3713 10.7701 14.9013 10.2501 14.3913C9.73005 13.8713 9.27003 13.3213 8.85003 12.7513C8.44003 12.1813 8.11005 11.6113 7.87005 11.0413C7.63005 10.4713 7.51006 9.92131 7.51006 9.40131C7.51006 9.06131 7.57006 8.73131 7.69006 8.43131C7.81006 8.12131 8.00007 7.84132 8.27007 7.59132C8.59007 7.27132 8.94005 7.12132 9.31005 7.12132C9.45005 7.12132 9.59002 7.15131 9.72002 7.21131C9.85002 7.27131 9.97005 7.36131 10.0601 7.49131L11.22 9.13129C11.31 9.26129 11.38 9.3713 11.42 9.4813C11.47 9.5913 11.49 9.6913 11.49 9.7913C11.49 9.9113 11.4501 10.0313 11.3801 10.1513C11.3101 10.2713 11.22 10.3913 11.1 10.5113L10.72 10.9113C10.66 10.9713 10.6401 11.0313 10.6401 11.1113C10.6401 11.1513 10.65 11.1913 10.66 11.2313C10.68 11.2713 10.6901 11.3013 10.7001 11.3313C10.7901 11.5013 10.95 11.7113 11.17 11.9713C11.4 12.2313 11.6401 12.5013 11.9001 12.7613C12.1701 13.0313 12.4301 13.2713 12.7001 13.5013C12.9601 13.7213 13.18 13.8713 13.35 13.9613C13.38 13.9713 13.4101 13.9913 13.4401 14.0013C13.4801 14.0213 13.5201 14.0213 13.5701 14.0213C13.6601 14.0213 13.7201 13.9913 13.7801 13.9313L14.16 13.5513C14.29 13.4213 14.4101 13.3313 14.5201 13.2713C14.6401 13.2013 14.7501 13.1613 14.8801 13.1613C14.9801 13.1613 15.0801 13.1813 15.1901 13.2313C15.3001 13.2813 15.42 13.3413 15.54 13.4313L17.2001 14.6113C17.3301 14.7013 17.42 14.8113 17.48 14.9313C17.53 15.0613 17.5601 15.1813 17.5601 15.3213C17.5001 15.4913 17.4601 15.6813 17.3801 15.8613Z" fill="black"/>
</svg>
