<svg width="25" height="25" viewBox="0 0 25 25" fill="none" xmlns="http://www.w3.org/2000/svg">
<path d="M22.5 16.3314C22.5 19.9714 20.33 22.1414 16.69 22.1414H15.5C14.95 22.1414 14.5 21.6914 14.5 21.1414V15.3714C14.5 15.1014 14.72 14.8714 14.99 14.8714L16.75 14.8414C16.89 14.8314 17.01 14.7314 17.04 14.5914L17.39 12.6814C17.42 12.5014 17.28 12.3314 17.09 12.3314L14.96 12.3614C14.68 12.3614 14.46 12.1414 14.45 11.8714L14.41 9.42136C14.41 9.26136 14.54 9.12137 14.71 9.12137L17.11 9.08136C17.28 9.08136 17.41 8.95137 17.41 8.78137L17.37 6.38135C17.37 6.21135 17.24 6.08136 17.07 6.08136L14.37 6.12137C12.71 6.15137 11.39 7.51136 11.42 9.17136L11.47 11.9214C11.48 12.2014 11.26 12.4214 10.98 12.4314L9.78 12.4514C9.61 12.4514 9.48001 12.5813 9.48001 12.7513L9.51001 14.6514C9.51001 14.8214 9.64 14.9514 9.81 14.9514L11.01 14.9314C11.29 14.9314 11.51 15.1514 11.52 15.4214L11.61 21.1214C11.62 21.6814 11.17 22.1414 10.61 22.1414H8.31C4.67 22.1414 2.5 19.9713 2.5 16.3214V7.95135C2.5 4.31135 4.67 2.14136 8.31 2.14136H16.69C20.33 2.14136 22.5 4.31135 22.5 7.95135V16.3314Z" fill="black"/>
</svg>
