<svg width="25" height="25" viewBox="0 0 25 25" fill="none" xmlns="http://www.w3.org/2000/svg">
<path d="M5 10.6314V16.5714C5 16.8814 5.14 17.1814 5.37 17.3814L10.73 21.9714C11.43 22.5714 12.5 22.0714 12.5 21.1614V17.0614H17.41C18.36 17.0614 18.84 15.9114 18.17 15.2314L12.5 9.56143H6.07001C5.48001 9.55143 5 10.0314 5 10.6314Z" fill="black"/>
<path d="M18.93 2.05127H7.59004C6.64004 2.05127 6.16003 3.20126 6.83003 3.88126L12.5 9.55127H18.93C19.52 9.55127 20 9.07126 20 8.48126V3.12128C20 2.53128 19.52 2.05127 18.93 2.05127Z" fill="black"/>
</svg>
