<svg width="25" height="25" viewBox="0 0 25 25" fill="none" xmlns="http://www.w3.org/2000/svg">
<path d="M8.89001 18.8812V8.72121C8.89001 8.32121 9.01001 7.93121 9.23001 7.60121L11.96 3.54121C12.39 2.89121 13.46 2.43121 14.37 2.77121C15.35 3.10121 16 4.20121 15.79 5.18121L15.27 8.45121C15.23 8.75121 15.31 9.02121 15.48 9.23121C15.65 9.42121 15.9 9.54121 16.17 9.54121H20.28C21.07 9.54121 21.75 9.86121 22.15 10.4212C22.53 10.9612 22.6 11.6612 22.35 12.3712L19.89 19.8612C19.58 21.1012 18.23 22.1112 16.89 22.1112H12.99C12.32 22.1112 11.38 21.8812 10.95 21.4512L9.67001 20.4612C9.18001 20.0912 8.89001 19.5012 8.89001 18.8812Z" fill="white"/>
<path d="M5.71 6.77124H4.68C3.13 6.77124 2.5 7.37124 2.5 8.85124V18.9112C2.5 20.3912 3.13 20.9912 4.68 20.9912H5.71C7.26 20.9912 7.89 20.3912 7.89 18.9112V8.85124C7.89 7.37124 7.26 6.77124 5.71 6.77124Z" fill="white"/>
</svg>
