<svg width="25" height="25" viewBox="0 0 25 25" fill="none" xmlns="http://www.w3.org/2000/svg">
<path d="M4.41 17.5713C4.22 17.5713 4.03 17.5013 3.88 17.3513C2.51 15.9713 1.75 14.1513 1.75 12.2213C1.75 8.21129 5 4.95129 9 4.95129L15.07 4.97129L13.98 3.93129C13.68 3.64129 13.67 3.17129 13.96 2.87129C14.25 2.57129 14.72 2.56129 15.02 2.85129L17.46 5.19129C17.68 5.40129 17.75 5.73129 17.64 6.01129C17.53 6.29129 17.25 6.48129 16.94 6.48129L9 6.46129C5.83 6.46129 3.25 9.05129 3.25 12.2313C3.25 13.7613 3.85 15.2113 4.94 16.3013C5.23 16.5913 5.23 17.0713 4.94 17.3613C4.79 17.5013 4.6 17.5713 4.41 17.5713Z" fill="white"/>
<path d="M10.5 22.1412C10.31 22.1412 10.13 22.0712 9.97999 21.9312L7.53999 19.5912C7.31999 19.3812 7.24999 19.0512 7.35999 18.7712C7.47999 18.4912 7.75999 18.3412 8.05999 18.3012L16.01 18.3212C19.18 18.3212 21.76 15.7312 21.76 12.5512C21.76 11.0212 21.16 9.57124 20.07 8.48124C19.78 8.19124 19.78 7.71124 20.07 7.42124C20.36 7.13124 20.84 7.13124 21.13 7.42124C22.5 8.80124 23.26 10.6212 23.26 12.5512C23.26 16.5612 20.01 19.8212 16.01 19.8212L9.93999 19.8012L11.03 20.8412C11.33 21.1312 11.34 21.6012 11.05 21.9012C10.89 22.0612 10.7 22.1412 10.5 22.1412Z" fill="white"/>
<path d="M12.75 15.8112C12.34 15.8112 12 15.4712 12 15.0612V11.6712L11.81 11.8812C11.53 12.1912 11.06 12.2112 10.75 11.9412C10.44 11.6712 10.42 11.1912 10.69 10.8812L12.19 9.21118C12.4 8.98118 12.73 8.90118 13.02 9.01118C13.31 9.13118 13.5 9.40118 13.5 9.72118V15.0712C13.5 15.4812 13.16 15.8112 12.75 15.8112Z" fill="white"/>
</svg>
