<svg width="25" height="25" viewBox="0 0 25 25" fill="none" xmlns="http://www.w3.org/2000/svg">
<path d="M21.65 6.56124C21.24 6.34124 20.38 6.11124 19.21 6.93124L17.74 7.97124C17.63 4.86124 16.28 3.64124 13 3.64124H7C3.58 3.64124 2.25 4.97124 2.25 8.39124V16.3912C2.25 18.6912 3.5 21.1412 7 21.1412H13C16.28 21.1412 17.63 19.9212 17.74 16.8112L19.21 17.8512C19.83 18.2912 20.37 18.4312 20.8 18.4312C21.17 18.4312 21.46 18.3212 21.65 18.2212C22.06 18.0112 22.75 17.4412 22.75 16.0112V8.77124C22.75 7.34124 22.06 6.77124 21.65 6.56124ZM11.5 11.7712C10.47 11.7712 9.62 10.9312 9.62 9.89124C9.62 8.85124 10.47 8.01124 11.5 8.01124C12.53 8.01124 13.38 8.85124 13.38 9.89124C13.38 10.9312 12.53 11.7712 11.5 11.7712Z" fill="white"/>
</svg>
