<svg width="43" height="42" viewBox="0 0 43 42" fill="none" xmlns="http://www.w3.org/2000/svg">
<rect x="0.13385" width="42" height="42" rx="21" fill="#0075FF" fill-opacity="0.09"/>
<path d="M28.2238 21.59C28.0638 21.59 27.9038 21.54 27.7638 21.43C23.7338 18.32 18.5238 18.32 14.4938 21.43C14.1638 21.68 13.6938 21.62 13.4438 21.3C13.1938 20.97 13.2538 20.5 13.5738 20.25C18.1638 16.7 24.0938 16.7 28.6738 20.25C29.0038 20.5 29.0638 20.97 28.8038 21.3C28.6738 21.49 28.4538 21.59 28.2238 21.59Z" fill="#2B59FF"/>
<path d="M31.1339 18.11C30.9739 18.11 30.8139 18.06 30.6739 17.95C24.8739 13.47 17.3839 13.47 11.5939 17.95C11.2639 18.2 10.7939 18.14 10.5439 17.82C10.2839 17.5 10.3439 17.02 10.6739 16.77C17.0239 11.86 25.2339 11.86 31.5939 16.77C31.9239 17.02 31.9839 17.49 31.7239 17.82C31.5839 18.01 31.3539 18.11 31.1339 18.11Z" fill="#2B59FF"/>
<path d="M26.3439 25.24C26.1839 25.24 26.0239 25.19 25.8839 25.08C23.0039 22.85 19.2739 22.85 16.3839 25.08C16.0539 25.33 15.5839 25.27 15.3339 24.95C15.0839 24.62 15.1439 24.15 15.4639 23.9C18.9039 21.24 23.3539 21.24 26.7939 23.9C27.1239 24.15 27.1839 24.62 26.9239 24.95C26.7839 25.14 26.5639 25.24 26.3439 25.24Z" fill="#2B59FF"/>
<path d="M23.7338 28.9C23.5738 28.9 23.4138 28.85 23.2738 28.74C21.9738 27.73 20.2838 27.73 18.9838 28.74C18.6538 28.99 18.1838 28.93 17.9338 28.61C17.6838 28.28 17.7438 27.81 18.0638 27.56C19.9238 26.12 22.3238 26.12 24.1838 27.56C24.5138 27.81 24.5738 28.28 24.3138 28.61C24.1838 28.79 23.9638 28.9 23.7338 28.9Z" fill="#2B59FF"/>
</svg>
